<svg width="36" height="32" viewBox="0 0 36 32" fill="none" xmlns="http://www.w3.org/2000/svg">
    <path
        d="M11.3333 12.6667L18 19.3333L24.6667 12.6667M4.66666 1H31.3333C32.2174 1 33.0652 1.35119 33.6904 1.97631C34.3155 2.60143 34.6667 3.44928 34.6667 4.33333V14.3333C34.6667 18.7536 32.9107 22.9928 29.7851 26.1184C26.6595 29.2441 22.4203 31 18 31C15.8113 31 13.644 30.5689 11.6219 29.7313C9.59984 28.8937 7.76253 27.6661 6.21488 26.1184C3.08928 22.9928 1.33333 18.7536 1.33333 14.3333V4.33333C1.33333 3.44928 1.68452 2.60143 2.30964 1.97631C2.93476 1.35119 3.78261 1 4.66666 1Z"
        stroke="#DEE5F0" stroke-width="2" stroke-linecap="round" stroke-linejoin="round" />
</svg>